<?xml version="1.0" encoding="UTF-8"?>
<svg version="1.1" xmlns="http://www.w3.org/2000/svg" width="1280" height="960">
<path d="M0 0 C2.35882609 -0.00134958 4.71765191 -0.00329255 7.07647705 -0.00579834 C11.99844027 -0.00873349 16.92033048 -0.00450242 21.84228516 0.00488281 C28.13551487 0.01630151 34.4285744 0.00969227 40.72179794 -0.00226212 C45.58436354 -0.00950281 50.44688904 -0.00718305 55.30945587 -0.00200653 C57.62978384 -0.00067746 59.95011551 -0.0022916 62.27043915 -0.00696564 C65.51470036 -0.01207004 68.75868869 -0.00426677 72.00292969 0.00683594 C72.95067764 0.00278748 73.8984256 -0.00126099 74.87489319 -0.00543213 C80.74997711 0.03163402 85.94564414 0.80469723 91.640625 2.265625 C91.640625 2.925625 91.640625 3.585625 91.640625 4.265625 C92.506875 4.36875 93.373125 4.471875 94.265625 4.578125 C97.80745623 5.29960914 100.48374542 6.53685761 103.640625 8.265625 C103.640625 8.925625 103.640625 9.585625 103.640625 10.265625 C104.20265625 10.36359375 104.7646875 10.4615625 105.34375 10.5625 C115.47240606 13.663109 120.84703324 23.61944679 125.640625 32.265625 C126.17429687 33.07902344 126.70796875 33.89242187 127.2578125 34.73046875 C134.01079175 47.11093071 132.80476544 64.80613078 129.70703125 77.9453125 C128.04373188 83.12408342 125.53333546 87.67847896 122.640625 92.265625 C121.980625 92.265625 121.320625 92.265625 120.640625 92.265625 C120.54136719 92.84441406 120.44210937 93.42320312 120.33984375 94.01953125 C117.8573428 101.99404549 108.47190925 108.25195799 101.640625 112.265625 C102.40503906 112.40097656 103.16945313 112.53632813 103.95703125 112.67578125 C113.29456672 114.55227755 121.17916554 117.99393385 129.640625 122.265625 C129.640625 122.925625 129.640625 123.585625 129.640625 124.265625 C130.3625 124.4925 131.084375 124.719375 131.828125 124.953125 C137.03268807 127.3819211 140.13689177 131.85770254 143.640625 136.265625 C144.3625 136.94625 145.084375 137.626875 145.828125 138.328125 C147.73187475 140.36316783 148.25226558 141.54710909 148.640625 144.265625 C149.300625 144.265625 149.960625 144.265625 150.640625 144.265625 C150.89457031 144.90628906 151.14851563 145.54695312 151.41015625 146.20703125 C151.75433594 147.07199219 152.09851563 147.93695313 152.453125 148.828125 C153.00033203 150.21257812 153.00033203 150.21257812 153.55859375 151.625 C154.38513761 153.64212509 155.30554211 155.62103296 156.265625 157.578125 C161.7189154 172.20285834 161.34182388 190.82123884 155.0234375 205.19140625 C152.34018274 210.81135445 149.32006705 216.23378023 145.640625 221.265625 C144.980625 221.265625 144.320625 221.265625 143.640625 221.265625 C143.41632813 221.9978125 143.19203125 222.73 142.9609375 223.484375 C140.44951555 228.77470764 135.23599677 231.82066778 130.640625 235.265625 C129.97675781 235.76578125 129.31289063 236.2659375 128.62890625 236.78125 C118.55875233 243.68400193 106.47486104 246.41821691 94.45141602 246.41088867 C93.25264832 246.41592659 93.25264832 246.41592659 92.02966309 246.42106628 C89.40126978 246.43052553 86.77294049 246.43251672 84.14453125 246.43359375 C82.3089953 246.43680933 80.47345961 246.44017363 78.63792419 246.44367981 C74.79563808 246.44965815 70.95337442 246.45152099 67.11108398 246.45092773 C62.19740987 246.45082607 57.28388011 246.46448819 52.37024021 246.48169994 C48.58090051 246.49283839 44.79159553 246.49484639 41.00224113 246.49431801 C39.19102416 246.49549495 37.3798062 246.49990067 35.56860542 246.50765038 C33.03204448 246.51748953 30.49579488 246.51455703 27.95922852 246.50854492 C27.21771042 246.51416443 26.47619232 246.51978394 25.71220398 246.52557373 C16.13064002 246.46810449 8.00692751 243.04975384 0.828125 236.828125 C-7.77750524 226.74724386 -9.96983126 217.61808147 -9.546875 204.578125 C-9.07716904 191.91984342 -9.07716904 191.91984342 -11.921875 179.703125 C-13.1934587 176.09824695 -13.65616129 173.12384674 -13.359375 169.265625 C-5.79683077 168.06249296 -0.43363702 172.12134127 5.640625 176.265625 C8.63929104 178.65568229 10.40028311 180.54459934 11.640625 184.265625 C14.280625 184.265625 16.920625 184.265625 19.640625 184.265625 C19.888125 183.688125 20.135625 183.110625 20.390625 182.515625 C21.640625 180.265625 21.640625 180.265625 23.453125 178.578125 C29.66248562 172.01394377 31.48089881 164.5992372 32.96484375 155.9140625 C34.26074658 148.91768538 35.42154248 145.13676868 40.640625 140.265625 C44.72904148 135.50802825 48.19660117 130.74834417 50.79296875 125.02734375 C51.640625 123.265625 51.640625 123.265625 53.453125 120.828125 C55.26009371 116.92887674 54.38833374 113.4005444 53.640625 109.265625 C52.83625 108.9975 52.031875 108.729375 51.203125 108.453125 C50.3575 108.06125 49.511875 107.669375 48.640625 107.265625 C48.310625 106.275625 47.980625 105.285625 47.640625 104.265625 C44.79082861 103.14881794 44.79082861 103.14881794 41.640625 102.265625 C40.29341217 101.62747156 38.95315382 100.97237129 37.640625 100.265625 C37.640625 99.605625 37.640625 98.945625 37.640625 98.265625 C36.795 98.1625 35.949375 98.059375 35.078125 97.953125 C31.22619799 97.1827396 28.19987469 95.90287986 24.640625 94.265625 C24.640625 93.605625 24.640625 92.945625 24.640625 92.265625 C23.939375 92.1625 23.238125 92.059375 22.515625 91.953125 C19.24924853 91.17203497 16.5934398 89.84503757 13.640625 88.265625 C13.640625 87.605625 13.640625 86.945625 13.640625 86.265625 C12.155625 85.770625 12.155625 85.770625 10.640625 85.265625 C9.6484375 83.41015625 9.6484375 83.41015625 8.765625 81.078125 C6.96683801 76.69968224 4.74502419 73.80119075 1.640625 70.265625 C1.640625 69.605625 1.640625 68.945625 1.640625 68.265625 C1.104375 68.20375 0.568125 68.141875 0.015625 68.078125 C-2.77075853 67.12488853 -4.46135118 65.52529871 -6.64453125 63.59765625 C-9.07763427 61.70770607 -11.72356121 60.50762484 -14.52734375 59.2578125 C-16.56997157 58.15157057 -17.89123204 57.06499534 -19.359375 55.265625 C-19.78416086 51.18768075 -19.67220087 49.73486381 -17.359375 46.265625 C-16.699375 46.265625 -16.039375 46.265625 -15.359375 46.265625 C-14.699375 44.615625 -14.039375 42.965625 -13.359375 41.265625 C-14.019375 40.935625 -14.679375 40.605625 -15.359375 40.265625 C-15.359375 39.605625 -15.359375 38.945625 -15.359375 38.265625 C-50.39792591 34.94973088 -50.39792591 34.94973088 -84.359375 42.265625 C-85.37 42.66136719 -86.380625 43.05710937 -87.421875 43.46484375 C-93.24816624 45.68927411 -93.24816624 45.68927411 -98.52734375 48.921875 C-100.359375 50.265625 -100.359375 50.265625 -103.359375 50.265625 C-103.606875 50.843125 -103.854375 51.420625 -104.109375 52.015625 C-105.58757973 54.67639351 -106.94251539 56.40119044 -109.359375 58.265625 C-112.109375 58.015625 -112.109375 58.015625 -114.359375 57.265625 C-114.359375 56.605625 -114.359375 55.945625 -114.359375 55.265625 C-113.699375 55.265625 -113.039375 55.265625 -112.359375 55.265625 C-112.194375 54.46125 -112.029375 53.656875 -111.859375 52.828125 C-109.73858966 47.79125983 -106.33424094 43.99206182 -102.359375 40.265625 C-101.699375 40.265625 -101.039375 40.265625 -100.359375 40.265625 C-100.1325 39.70875 -99.905625 39.151875 -99.671875 38.578125 C-95.5415522 31.3008896 -87.63496932 26.93341578 -80.359375 23.265625 C-77.165386 22.44193511 -74.68023153 22.265625 -71.359375 22.265625 C-71.359375 21.605625 -71.359375 20.945625 -71.359375 20.265625 C-61.16545984 19.22705998 -52.12946292 18.53839526 -42.578125 22.5703125 C-38.77070071 23.7634842 -34.86341506 23.84389122 -30.8984375 24.0546875 C-28.359375 24.265625 -28.359375 24.265625 -26.359375 25.265625 C-26.359375 24.605625 -26.359375 23.945625 -26.359375 23.265625 C-27.23335937 23.07613281 -27.23335937 23.07613281 -28.125 22.8828125 C-30.3336015 22.27274425 -32.09249571 21.46573834 -34.109375 20.390625 C-42.06361266 16.35501913 -49.508221 14.51953848 -58.359375 13.265625 C-58.854375 11.780625 -58.854375 11.780625 -59.359375 10.265625 C-52.12771175 6.39151969 -45.75208459 3.84598952 -37.359375 4.265625 C-37.359375 3.605625 -37.359375 2.945625 -37.359375 2.265625 C-25.00389817 -0.396261 -12.57114318 -0.02542562 0 0 Z M-23.359375 27.265625 C-23.359375 27.925625 -23.359375 28.585625 -23.359375 29.265625 C-22.369375 28.935625 -21.379375 28.605625 -20.359375 28.265625 C-21.349375 27.935625 -22.339375 27.605625 -23.359375 27.265625 Z " fill="#FEFEFE" transform="translate(627.359375,278.734375)"/>
<path d="M0 0 C1.72814941 -0.00956978 1.72814941 -0.00956978 3.49121094 -0.01933289 C5.37694824 -0.02100212 5.37694824 -0.02100212 7.30078125 -0.02270508 C8.58758789 -0.02603348 9.87439453 -0.02936188 11.20019531 -0.03279114 C13.93409053 -0.03879331 16.66795412 -0.04063026 19.40185547 -0.04003906 C22.88398117 -0.03993813 26.36589978 -0.05351345 29.84797668 -0.07081127 C33.18641405 -0.08470652 36.52481541 -0.08402331 39.86328125 -0.08520508 C41.10424561 -0.09239059 42.34520996 -0.09957611 43.6237793 -0.10697937 C50.28013836 -0.0895846 56.18151697 0.40404637 62.61328125 2.14526367 C62.61328125 2.80526367 62.61328125 3.46526367 62.61328125 4.14526367 C63.62390625 4.31026367 64.63453125 4.47526367 65.67578125 4.64526367 C70.7019071 6.05052743 73.83332428 9.87815647 76.61328125 14.14526367 C76.61328125 15.13526367 76.61328125 16.12526367 76.61328125 17.14526367 C77.27328125 17.14526367 77.93328125 17.14526367 78.61328125 17.14526367 C81.57460302 25.47398116 81.57460302 33.81654619 78.61328125 42.14526367 C77.95328125 42.14526367 77.29328125 42.14526367 76.61328125 42.14526367 C76.40703125 43.03213867 76.20078125 43.91901367 75.98828125 44.83276367 C74.23023767 49.06805049 72.25954792 50.450197 68.61328125 53.14526367 C69.31667691 55.65491981 69.31667691 55.65491981 70.61328125 58.14526367 C71.226875 58.29479492 71.84046875 58.44432617 72.47265625 58.59838867 C76.8018812 59.70439505 79.20615272 63.59029144 81.61328125 67.14526367 C85.82530179 75.54537283 85.97386565 82.97610794 84.61328125 92.14526367 C83.95328125 92.14526367 83.29328125 92.14526367 82.61328125 92.14526367 C82.51015625 93.03213867 82.40703125 93.91901367 82.30078125 94.83276367 C81.09433832 100.64562505 78.08961311 104.33561954 73.61328125 108.14526367 C66.38992589 112.38169614 60.49123504 114.26880145 52.09472656 114.2746582 C50.79698303 114.27781036 49.4992395 114.28096252 48.16217041 114.28421021 C46.75524868 114.28242096 45.34832725 114.28037014 43.94140625 114.27807617 C42.49363183 114.27875006 41.04585753 114.2797208 39.5980835 114.28097534 C36.57205116 114.28244643 33.54604842 114.28031545 30.52001953 114.27563477 C26.63372081 114.26991737 22.74749085 114.27323285 18.86119461 114.27920723 C15.87588986 114.28281136 12.89060156 114.2816753 9.90529633 114.27907944 C8.47150413 114.27841081 7.03771045 114.27923636 5.60391998 114.28155899 C3.6073662 114.28408524 1.61080719 114.27955531 -0.38574219 114.2746582 C-2.09186676 114.27346481 -2.09186676 114.27346481 -3.8324585 114.27224731 C-6.38671875 114.14526367 -6.38671875 114.14526367 -7.38671875 113.14526367 C-7.48718833 110.67608079 -7.52288851 108.23485874 -7.51611328 105.76513672 C-7.5178656 104.99066696 -7.51961792 104.2161972 -7.52142334 103.41825867 C-7.52585704 100.83114435 -7.52289095 98.24409757 -7.51953125 95.65698242 C-7.52020569 93.84218839 -7.52117688 92.02739444 -7.52243042 90.21260071 C-7.52391088 86.38147127 -7.52174844 82.55036503 -7.51708984 78.71923828 C-7.51150007 73.89516722 -7.51469734 69.07115259 -7.52052689 64.24708366 C-7.5382777 46.98585535 -7.53248617 29.73010364 -6.94140625 12.47729492 C-6.90266388 11.31816086 -6.86392151 10.15902679 -6.82400513 8.96476746 C-6.46648152 0.02419497 -6.46648152 0.02419497 0 0 Z M12.61328125 18.14526367 C12.61328125 27.71526367 12.61328125 37.28526367 12.61328125 47.14526367 C17.36391195 47.16826296 22.11434815 47.1881635 26.86499023 47.20019531 C28.47990576 47.20521309 30.09481677 47.21202879 31.7097168 47.22070312 C34.0356559 47.23288082 36.36153475 47.23851762 38.6875 47.24291992 C39.40540207 47.24808121 40.12330414 47.25324249 40.86296082 47.25856018 C44.57618357 47.25897243 48.00319247 47.03470583 51.61328125 46.14526367 C51.61328125 45.48526367 51.61328125 44.82526367 51.61328125 44.14526367 C52.37640625 43.91838867 53.13953125 43.69151367 53.92578125 43.45776367 C57.20858598 41.85453345 57.97245476 40.34878205 59.61328125 37.14526367 C60.27328125 36.15526367 60.93328125 35.16526367 61.61328125 34.14526367 C61.4855355 28.65219621 59.36764484 24.07988982 55.61328125 20.14526367 C47.62206885 16.44754636 38.78507174 16.75034137 30.17578125 16.89526367 C28.92345703 16.90041992 27.67113281 16.90557617 26.38085938 16.91088867 C19.43361284 16.96209314 19.43361284 16.96209314 12.61328125 18.14526367 Z M12.61328125 64.14526367 C12.44550276 68.36255291 12.28496091 72.58003685 12.13110352 76.79785156 C12.07775228 78.23249716 12.02242835 79.66707081 11.96508789 81.1015625 C11.88298425 83.16414886 11.80799129 85.22689035 11.734375 87.28979492 C11.68724365 88.53092041 11.6401123 89.7720459 11.59155273 91.05078125 C11.45388435 94.18300426 11.45388435 94.18300426 12.61328125 97.14526367 C17.86021513 97.24481872 23.10658822 97.31705327 28.35424805 97.36499023 C30.13592111 97.38499272 31.91752948 97.4122039 33.69897461 97.44702148 C49.10640567 98.07602456 49.10640567 98.07602456 62.11328125 90.77026367 C63.7836915 87.84704573 64.30301921 85.4805806 64.61328125 82.14526367 C65.27328125 82.14526367 65.93328125 82.14526367 66.61328125 82.14526367 C66.61328125 80.82526367 66.61328125 79.50526367 66.61328125 78.14526367 C65.95328125 78.14526367 65.29328125 78.14526367 64.61328125 78.14526367 C64.48953125 77.23776367 64.36578125 76.33026367 64.23828125 75.39526367 C63.53949789 71.76159021 62.97388933 69.16601716 59.93798828 66.88842773 C50.86253924 62.8409675 41.20699588 63.7095111 31.48828125 63.89526367 C29.65496743 63.91536011 27.82163234 63.93360532 25.98828125 63.94995117 C21.52941602 63.99369631 17.07158687 64.06254928 12.61328125 64.14526367 Z " fill="#FEFEFE" transform="translate(385.38671875,566.854736328125)"/>
<path d="M0 0 C0 0.66 0 1.32 0 2 C0.8765625 2.25523437 1.753125 2.51046875 2.65625 2.7734375 C10.90507566 5.79929177 18.90784592 12.11735705 23 20 C23.26792358 21.03411011 23.26792358 21.03411011 23.54125977 22.08911133 C24.69678084 26.50288277 25.59982825 29.25182907 29.58984375 31.70703125 C31.02279426 32.44149923 32.47331524 33.14246017 33.9375 33.8125 C34.69732178 34.18721436 35.45714355 34.56192871 36.23999023 34.94799805 C41.49003997 37.47584079 46.82592483 39.48061126 52.40234375 41.17578125 C61.86049238 44.17678781 61.86049238 44.17678781 64.2109375 47.9375 C65 50 65 50 65 53 C61.37 53 57.74 53 54 53 C54.99 53.928125 55.98 54.85625 57 55.8125 C58.6875 57.39453125 58.6875 57.39453125 60 59 C60 59.99 60 60.98 60 62 C60.66 62 61.32 62 62 62 C62 63.32 62 64.64 62 66 C61.34 66 60.68 66 60 66 C59.938125 66.556875 59.87625 67.11375 59.8125 67.6875 C58.19478755 72.29175851 53.91833236 75.2944848 50 78 C48.41916476 78.72024654 46.8124896 79.3858307 45.1875 80 C44.31222656 80.34160156 43.43695312 80.68320312 42.53515625 81.03515625 C41.00572826 81.61723439 39.47278795 82.19035445 37.93359375 82.74609375 C33.69640369 84.36592667 31.46935586 86.20099098 29 90 C28.505 91.485 28.505 91.485 28 93 C29.65 92.67 31.3 92.34 33 92 C33 91.34 33 90.68 33 90 C37.50353262 88.24252386 41.17639811 87.80705592 46 88 C46.51926683 97.51989189 43.38362455 104.6862293 39 113 C35.93606987 113.25532751 34.36766788 113.21861333 31.6875 111.625 C31.130625 111.08875 30.57375 110.5525 30 110 C30 109.34 30 108.68 30 108 C28.7625 107.62875 28.7625 107.62875 27.5 107.25 C24 106 24 106 20.5625 104.0625 C15.44856045 101.36098418 9.84528121 100.75992321 4.1953125 99.90625 C1 99 1 99 -0.42578125 97.1953125 C-2.43945161 89.49679044 -0.61439859 82.3140913 2 75 C2.66 75 3.32 75 4 75 C4.33 73.35 4.66 71.7 5 70 C3.31234761 70.4577719 1.62488648 70.9162489 -0.0625 71.375 C-1.57263672 71.78105469 -1.57263672 71.78105469 -3.11328125 72.1953125 C-5.34406548 72.81715492 -7.55300713 73.51766904 -9.75 74.25 C-13.60315872 75.13919047 -16.18065232 75.00888429 -20 74 C-23.74760059 71.26526443 -25.02178451 68.48348765 -26 64 C-26.20023359 60.32391667 -26.26909812 56.6735022 -26 53 C-25.67 52.67 -25.34 52.34 -25 52 C-24.63239269 49.67182036 -24.29758419 47.3381615 -24 45 C-28.95 45.495 -28.95 45.495 -34 46 C-36.09804879 41.70439022 -36.23899993 38.12235733 -36.1875 33.375 C-36.18105469 32.06273437 -36.17460938 30.75046875 -36.16796875 29.3984375 C-36 26 -36 26 -35 23 C-36.11375 23.020625 -37.2275 23.04125 -38.375 23.0625 C-42 23 -42 23 -44 22 C-44.50338797 16.71442634 -43.34676996 14.09049661 -40 10 C-37.9375 8.875 -37.9375 8.875 -36 8 C-35.58621094 7.38769531 -35.17242188 6.77539062 -34.74609375 6.14453125 C-32.52358256 3.41486985 -30.28216826 2.3438447 -27.125 0.8125 C-26.09632813 0.30332031 -25.06765625 -0.20585937 -24.0078125 -0.73046875 C-15.55593974 -4.29781764 -8.33383391 -3.17479387 0 0 Z M-3 20 C-2.09373216 21.2989839 -1.17450463 22.58893167 -0.25 23.875 C0.26046875 24.59429687 0.7709375 25.31359375 1.296875 26.0546875 C3.08808884 28.10061524 4.56981455 28.86659418 7 30 C7.33 30.66 7.66 31.32 8 32 C10.3140622 32.73075648 12.64828869 33.40138258 15 34 C12.93685822 26.84230288 12.93685822 26.84230288 7.6875 21.9375 C4.11891929 21.03023372 0.6625075 20.37372526 -3 20 Z " fill="#FEFEFE" transform="translate(608,341)"/>
<path d="M0 0 C1.53827957 -0.00956978 1.53827957 -0.00956978 3.1076355 -0.01933289 C4.22727692 -0.02044571 5.34691833 -0.02155853 6.50048828 -0.02270508 C7.64937531 -0.02603348 8.79826233 -0.02936188 9.98196411 -0.03279114 C12.42498371 -0.03786908 14.86801029 -0.0401992 17.31103516 -0.04003906 C21.02013952 -0.04220672 24.72893737 -0.06030083 28.43798828 -0.0793457 C30.81298727 -0.08228335 33.18798766 -0.08426566 35.56298828 -0.08520508 C37.21208694 -0.09598335 37.21208694 -0.09598335 38.89450073 -0.10697937 C45.86748127 -0.08668378 52.3833595 0.65440972 59.19580078 2.14526367 C59.19580078 2.80526367 59.19580078 3.46526367 59.19580078 4.14526367 C60.52611328 4.29995117 60.52611328 4.29995117 61.88330078 4.45776367 C65.28487827 5.16375145 67.38614143 6.13836413 70.19580078 8.14526367 C70.69080078 9.13526367 70.69080078 9.13526367 71.19580078 10.14526367 C72.02080078 10.61963867 72.84580078 11.09401367 73.69580078 11.58276367 C76.19580078 13.14526367 76.19580078 13.14526367 77.19580078 16.14526367 C77.84162109 16.73952148 78.48744141 17.3337793 79.15283203 17.94604492 C81.67815554 20.6645098 82.123886 22.72883572 82.88330078 26.33276367 C83.41506518 30.04712752 83.41506518 30.04712752 85.19580078 33.14526367 C85.26785589 34.83135333 85.27966146 36.52027026 85.25830078 38.20776367 C85.24927734 39.12686523 85.24025391 40.0459668 85.23095703 40.99291992 C85.21935547 41.70319336 85.20775391 42.4134668 85.19580078 43.14526367 C84.53580078 43.14526367 83.87580078 43.14526367 83.19580078 43.14526367 C83.15841797 43.7975293 83.12103516 44.44979492 83.08251953 45.12182617 C82.68086316 50.46149324 82.02818469 54.46567287 79.19580078 59.14526367 C78.53580078 59.14526367 77.87580078 59.14526367 77.19580078 59.14526367 C76.96248047 59.89420898 76.72916016 60.6431543 76.48876953 61.41479492 C74.01320846 66.64264141 68.25081362 69.9167929 62.98095703 72.03588867 C61.07080078 72.58276367 61.07080078 72.58276367 58.19580078 73.14526367 C58.85580078 75.12526367 59.51580078 77.10526367 60.19580078 79.14526367 C60.85580078 79.14526367 61.51580078 79.14526367 62.19580078 79.14526367 C63.59814453 80.97338867 63.59814453 80.97338867 65.13330078 83.39526367 C66.64948013 85.76841396 68.12462083 88.05649422 69.88720703 90.25463867 C71.19580078 92.14526367 71.19580078 92.14526367 71.19580078 95.14526367 C71.81455078 95.35151367 72.43330078 95.55776367 73.07080078 95.77026367 C76.04233723 97.69302255 76.32604737 99.81120894 77.19580078 103.14526367 C77.85580078 103.14526367 78.51580078 103.14526367 79.19580078 103.14526367 C81.56083117 106.13633152 83.11133259 108.17387949 83.44580078 112.02026367 C83.36330078 112.72151367 83.28080078 113.42276367 83.19580078 114.14526367 C78.80879226 115.39303585 74.72085373 115.28331613 70.19580078 115.14526367 C68.97892578 115.14526367 67.76205078 115.14526367 66.50830078 115.14526367 C61.67629415 113.68654469 59.5875946 110.47136054 57.19580078 106.14526367 C57.03853516 105.41952148 56.88126953 104.6937793 56.71923828 103.94604492 C56.54650391 103.35178711 56.37376953 102.7575293 56.19580078 102.14526367 C55.20580078 101.81526367 54.21580078 101.48526367 53.19580078 101.14526367 C51.44189453 98.78198242 51.44189453 98.78198242 49.63330078 95.83276367 C49.03388672 94.86725586 48.43447266 93.90174805 47.81689453 92.90698242 C46.19580078 90.14526367 46.19580078 90.14526367 45.10986328 87.91479492 C44.21435021 85.95092451 44.21435021 85.95092451 42.13330078 84.14526367 C40.05771436 82.00272285 39.86941837 80.93596511 39.19580078 78.14526367 C36.21212352 77.15070458 33.99538158 76.94966735 30.87158203 76.82885742 C29.94514893 76.79074951 29.01871582 76.7526416 28.06420898 76.71337891 C26.89075928 76.67027588 25.71730957 76.62717285 24.50830078 76.58276367 C18.90861328 76.36620117 18.90861328 76.36620117 13.19580078 76.14526367 C13.19580078 88.68526367 13.19580078 101.22526367 13.19580078 114.14526367 C10.90863363 115.28884725 9.61031201 115.27911214 7.07080078 115.27026367 C6.34634766 115.2728418 5.62189453 115.27541992 4.87548828 115.27807617 C1.2836553 115.1000553 -2.23692794 114.60293244 -5.80419922 114.14526367 C-5.82752916 99.42916803 -5.84517886 84.71307482 -5.85601139 69.99696445 C-5.86117415 63.16447393 -5.86821645 56.33199488 -5.87963867 49.49951172 C-5.89064629 42.91191063 -5.89647545 36.32431836 -5.89907646 29.73670769 C-5.90093122 27.21718088 -5.90455279 24.69765476 -5.90992928 22.17813301 C-5.91713598 18.66268602 -5.91819032 15.14728907 -5.91772461 11.63183594 C-5.92131989 10.57879776 -5.92491516 9.52575958 -5.92861938 8.44081116 C-5.92655739 7.01255005 -5.92655739 7.01255005 -5.92445374 5.55543518 C-5.92537553 4.72305612 -5.92629732 3.89067705 -5.92724705 3.03307438 C-5.67868227 -0.78042853 -3.25989071 0.01371316 0 0 Z M13.19580078 18.14526367 C13.19580078 31.34526367 13.19580078 44.54526367 13.19580078 58.14526367 C18.55830078 58.26901367 23.92080078 58.39276367 29.44580078 58.52026367 C31.9444873 58.60219971 31.9444873 58.60219971 34.49365234 58.68579102 C43.8216747 58.86460338 51.4347759 57.94622571 59.19580078 52.14526367 C62.88456274 47.96504215 65.24385903 44.46662239 65.16064453 38.71557617 C64.63430349 30.95992047 64.63430349 30.95992047 60.63720703 24.58666992 C51.31809193 16.76761359 39.61901048 17.88259644 28.07080078 18.02026367 C23.16205078 18.06151367 18.25330078 18.10276367 13.19580078 18.14526367 Z " fill="#FEFEFE" transform="translate(664.80419921875,566.854736328125)"/>
<path d="M0 0 C0.87205078 -0.03738281 1.74410156 -0.07476563 2.64257812 -0.11328125 C5.04699298 -0.14654756 7.20758054 -0.11535524 9.5625 0.375 C11.53125 2.6640625 11.53125 2.6640625 12.5625 5.375 C12.92472656 6.00921875 13.28695312 6.6434375 13.66015625 7.296875 C16.2458783 12.19613783 17.60433794 16.92860511 18.5625 22.375 C19.2225 22.375 19.8825 22.375 20.5625 22.375 C21.23281719 24.3320868 21.89864683 26.29071113 22.5625 28.25 C23.119375 29.88582031 23.119375 29.88582031 23.6875 31.5546875 C24.5625 34.375 24.5625 34.375 24.5625 36.375 C25.2225 36.375 25.8825 36.375 26.5625 36.375 C26.80484375 37.1484375 27.0471875 37.921875 27.296875 38.71875 C29.05426102 44.18016502 30.87923834 49.37420439 33.55859375 54.44921875 C41.5625 69.80301556 41.5625 69.80301556 41.5625 76.375 C42.2225 76.375 42.8825 76.375 43.5625 76.375 C43.85382813 77.16261719 44.14515625 77.95023438 44.4453125 78.76171875 C47.76133352 87.57315825 51.55676522 96.07192931 55.609375 104.5703125 C57.16533746 107.96113636 58.00311172 110.62980035 57.5625 114.375 C55.65981293 116.27768707 52.40560855 115.54927843 49.875 115.5625 C48.65425781 115.57667969 47.43351563 115.59085938 46.17578125 115.60546875 C42.48031631 115.36975801 39.87828681 115.03051479 36.5625 113.375 C34.8828125 110.66015625 34.8828125 110.66015625 33.6875 107.4375 C33.27757812 106.37660156 32.86765625 105.31570313 32.4453125 104.22265625 C31.5625 101.375 31.5625 101.375 31.5625 98.375 C30.9025 98.375 30.2425 98.375 29.5625 98.375 C28.9025 96.395 28.2425 94.415 27.5625 92.375 C9.4125 92.375 -8.7375 92.375 -27.4375 92.375 C-31.37437614 100.90529086 -31.37437614 100.90529086 -34.75 109.5625 C-35.07613281 110.48417969 -35.40226563 111.40585937 -35.73828125 112.35546875 C-35.96902344 113.02191406 -36.19976563 113.68835938 -36.4375 114.375 C-43.58893075 115.64636547 -51.38586952 116.45580899 -58.4375 114.375 C-58.0199128 109.36395366 -56.86096522 105.85909025 -54.4921875 101.44140625 C-52.83334462 98.19130298 -51.66381669 94.80868674 -50.4375 91.375 C-49.7775 91.375 -49.1175 91.375 -48.4375 91.375 C-48.31632813 90.78332031 -48.19515625 90.19164062 -48.0703125 89.58203125 C-47.17005357 85.33696415 -46.23293379 81.35060339 -44.4375 77.375 C-43.7775 77.375 -43.1175 77.375 -42.4375 77.375 C-42.35628906 76.58867188 -42.27507813 75.80234375 -42.19140625 74.9921875 C-41.19279654 70.20093055 -39.32541176 65.97348328 -37.375 61.5 C-36.99794922 60.62085938 -36.62089844 59.74171875 -36.23242188 58.8359375 C-35.30663928 56.67968436 -34.37488089 54.52623021 -33.4375 52.375 C-32.7775 52.375 -32.1175 52.375 -31.4375 52.375 C-31.355 51.570625 -31.2725 50.76625 -31.1875 49.9375 C-30.41426141 46.2646167 -29.17724639 43.36625035 -27.60546875 39.984375 C-26.29082542 37.0473123 -25.1408753 34.0712437 -24 31.0625 C-21.61260967 24.77521117 -19.05959443 18.56760598 -16.4375 12.375 C-15.7775 12.375 -15.1175 12.375 -14.4375 12.375 C-14.251875 11.0446875 -14.251875 11.0446875 -14.0625 9.6875 C-13.4887414 6.6465794 -12.78614818 4.15162861 -11.4375 1.375 C-7.90372526 -0.39188737 -3.89345402 0.06302869 0 0 Z M-0.4375 27.375 C-3.59995335 33.34996309 -6.23808786 39.30628343 -8.45703125 45.69140625 C-9.68593404 49.05497683 -11.15971256 52.27070629 -12.703125 55.5 C-13.61984595 57.50494978 -13.61984595 57.50494978 -13.4375 60.375 C-14.0975 60.375 -14.7575 60.375 -15.4375 60.375 C-16.11010351 62.14358691 -16.77538395 63.91496016 -17.4375 65.6875 C-17.80875 66.67363281 -18.18 67.65976562 -18.5625 68.67578125 C-19.59168502 71.37771656 -19.59168502 71.37771656 -19.4375 74.375 C-6.2375 74.375 6.9625 74.375 20.5625 74.375 C20.5625 73.715 20.5625 73.055 20.5625 72.375 C19.9025 72.375 19.2425 72.375 18.5625 72.375 C18.44519531 71.66601562 18.32789063 70.95703125 18.20703125 70.2265625 C17.5218531 67.19516828 16.4897712 64.59801929 15.25 61.75 C12.80758196 56.02735773 10.62991596 50.2423034 8.5625 44.375 C7.9025 44.375 7.2425 44.375 6.5625 44.375 C6.315 43.240625 6.0675 42.10625 5.8125 40.9375 C4.63050998 36.14958392 2.67939209 31.81430767 0.5625 27.375 C0.2325 27.375 -0.0975 27.375 -0.4375 27.375 Z " fill="#FEFEFE" transform="translate(843.4375,566.625)"/>
<path d="M0 0 C0.83660156 0.00386719 1.67320312 0.00773438 2.53515625 0.01171875 C3.36402344 0.00785156 4.19289063 0.00398437 5.046875 0 C5.84480469 0.00128906 6.64273438 0.00257813 7.46484375 0.00390625 C8.5628833 0.00559814 8.5628833 0.00559814 9.68310547 0.00732422 C11.66015625 0.13671875 11.66015625 0.13671875 14.66015625 1.13671875 C15.6875 3.03515625 15.6875 3.03515625 16.59765625 5.51171875 C16.93152344 6.40632812 17.26539063 7.3009375 17.609375 8.22265625 C17.95613281 9.18429687 18.30289063 10.1459375 18.66015625 11.13671875 C19.03785156 12.13960937 19.41554688 13.1425 19.8046875 14.17578125 C22.66015625 21.8239979 22.66015625 21.8239979 22.66015625 24.13671875 C23.32015625 24.13671875 23.98015625 24.13671875 24.66015625 24.13671875 C24.9746875 25.04292969 25.28921875 25.94914063 25.61328125 26.8828125 C28.37993506 34.75777589 31.39557119 42.38042211 34.984375 49.91796875 C39.24346423 58.99751713 39.24346423 58.99751713 39.66015625 64.13671875 C40.32015625 64.13671875 40.98015625 64.13671875 41.66015625 64.13671875 C42.33275976 65.90530566 42.9980402 67.67667891 43.66015625 69.44921875 C44.03140625 70.43535156 44.40265625 71.42148437 44.78515625 72.4375 C45.66015625 75.13671875 45.66015625 75.13671875 45.66015625 78.13671875 C46.32015625 78.13671875 46.98015625 78.13671875 47.66015625 78.13671875 C48.03527344 79.09191406 48.41039062 80.04710937 48.796875 81.03125 C51.88009135 88.83706622 55.12791306 96.52110223 58.66015625 104.13671875 C61.66015625 110.66471875 61.66015625 110.66471875 61.66015625 114.13671875 C57.4903971 116.22159833 52.22011558 115.30836088 47.66015625 115.13671875 C46.47486328 115.14058594 46.47486328 115.14058594 45.265625 115.14453125 C43.22265625 114.94921875 43.22265625 114.94921875 39.66015625 113.13671875 C38.02549936 110.05585068 36.91148877 107.01594504 35.86328125 103.69140625 C34.46195495 99.28412308 34.46195495 99.28412308 30.66015625 92.13671875 C12.18015625 92.13671875 -6.29984375 92.13671875 -25.33984375 92.13671875 C-25.66984375 93.78671875 -25.99984375 95.43671875 -26.33984375 97.13671875 C-31.22492932 111.02180432 -31.22492932 111.02180432 -34.33984375 114.13671875 C-35.82856235 114.22341307 -37.32128875 114.24375369 -38.8125 114.234375 C-39.71162109 114.23115234 -40.61074219 114.22792969 -41.53710938 114.22460938 C-42.95540039 114.21204102 -42.95540039 114.21204102 -44.40234375 114.19921875 C-45.35173828 114.19470703 -46.30113281 114.19019531 -47.27929688 114.18554688 C-49.6328744 114.17371985 -51.98632852 114.157239 -54.33984375 114.13671875 C-54.48881601 110.36452825 -54.5070132 107.730528 -52.58984375 104.44921875 C-49.92745682 99.55232851 -48.15678911 94.39426277 -46.33984375 89.13671875 C-45.67984375 89.13671875 -45.01984375 89.13671875 -44.33984375 89.13671875 C-44.18515625 87.86828125 -44.18515625 87.86828125 -44.02734375 86.57421875 C-43.25695835 82.72229174 -41.97709861 79.69596844 -40.33984375 76.13671875 C-39.67984375 76.13671875 -39.01984375 76.13671875 -38.33984375 76.13671875 C-38.25734375 75.33234375 -38.17484375 74.52796875 -38.08984375 73.69921875 C-37.30516698 69.97200409 -36.03571484 66.98209386 -34.44140625 63.546875 C-33.35210365 61.16354272 -32.36466863 58.76132606 -31.40234375 56.32421875 C-29.46589173 51.42161402 -27.43638619 46.56101613 -25.390625 41.703125 C-24.64137858 39.87318115 -23.96514885 38.01263405 -23.33984375 36.13671875 C-22.67984375 36.13671875 -22.01984375 36.13671875 -21.33984375 36.13671875 C-21.23671875 35.31171875 -21.13359375 34.48671875 -21.02734375 33.63671875 C-20.22338319 29.54382863 -18.87632217 26.0113165 -17.33984375 22.13671875 C-16.67984375 22.13671875 -16.01984375 22.13671875 -15.33984375 22.13671875 C-15.200625 20.89341797 -15.200625 20.89341797 -15.05859375 19.625 C-14.20723373 15.49312771 -12.67371635 12.09875573 -10.83984375 8.32421875 C-10.51886719 7.64423828 -10.19789063 6.96425781 -9.8671875 6.26367188 C-7.0304683 0.31130921 -6.67999892 0.01082658 0 0 Z M2.66015625 27.13671875 C2.33015625 28.78671875 2.00015625 30.43671875 1.66015625 32.13671875 C1.00015625 32.13671875 0.34015625 32.13671875 -0.33984375 32.13671875 C-0.61957031 32.97332031 -0.89929688 33.80992187 -1.1875 34.671875 C-3.70290712 41.97545259 -6.54949578 48.95292815 -9.87744141 55.9230957 C-13.83910365 63.70410377 -13.83910365 63.70410377 -15.33984375 72.13671875 C-15.99984375 72.13671875 -16.65984375 72.13671875 -17.33984375 72.13671875 C-17.33984375 72.79671875 -17.33984375 73.45671875 -17.33984375 74.13671875 C-4.13984375 74.13671875 9.06015625 74.13671875 22.66015625 74.13671875 C21.15684896 66.95298016 21.15684896 66.95298016 18.66015625 60.13671875 C18.00015625 60.13671875 17.34015625 60.13671875 16.66015625 60.13671875 C16.57765625 59.33234375 16.49515625 58.52796875 16.41015625 57.69921875 C15.6264636 53.97667868 14.36198134 50.99149647 12.765625 47.5625 C11.64102077 45.09472889 10.64241755 42.60169744 9.66015625 40.07421875 C7.90219331 35.61652701 5.86543223 31.38975099 3.66015625 27.13671875 C3.33015625 27.13671875 3.00015625 27.13671875 2.66015625 27.13671875 Z " fill="#FEFEFE" transform="translate(559.33984375,566.86328125)"/>
<path d="M0 0 C2 1.3125 2 1.3125 4 3 C4 3.99 4 4.98 4 6 C3.34 6 2.68 6 2 6 C1.814375 7.0828125 1.814375 7.0828125 1.625 8.1875 C1 11 1 11 0 13.375 C-2.41049905 19.70256001 -1.94701302 24.33500926 -0.08203125 30.66796875 C1.2490807 33.53682735 2.50372281 35.04437168 5 37 C8.2472854 38.11976479 8.2472854 38.11976479 11.75 38.75 C12.92046875 38.99234375 14.0909375 39.2346875 15.296875 39.484375 C16.18890625 39.65453125 17.0809375 39.8246875 18 40 C16.39868849 44.39807217 14.5469451 46.88560918 11 50 C10.01 50.33 9.02 50.66 8 51 C6.89163577 52.88316159 6.89163577 52.88316159 6 55 C5.34 55.99 4.68 56.98 4 58 C3.34 58 2.68 58 2 58 C1.71125 58.763125 1.4225 59.52625 1.125 60.3125 C0 63 0 63 -2 66 C-2.66 66 -3.32 66 -4 66 C-4.185625 67.0828125 -4.185625 67.0828125 -4.375 68.1875 C-4.9904931 70.95721894 -5.88444374 73.3970354 -7 76 C-7.66 76 -8.32 76 -9 76 C-10.32 82.6 -11.64 89.2 -13 96 C-13.66 96 -14.32 96 -15 96 C-15 100.95 -15 105.9 -15 111 C-14.34 111 -13.68 111 -13 111 C-12.87882813 111.70125 -12.75765625 112.4025 -12.6328125 113.125 C-11.62695498 118.81970105 -10.47688372 124.40894019 -9 130 C-8.34 130 -7.68 130 -7 130 C-6.29773859 131.24176695 -5.61370891 132.49385599 -4.9375 133.75 C-4.55464844 134.44609375 -4.17179688 135.1421875 -3.77734375 135.859375 C-2.8687594 138.36140628 -3.11663163 139.5332355 -4 142 C-7.66490488 140.69248561 -10.40927914 139.12195206 -13.4375 136.6875 C-14.21480469 136.06488281 -14.99210938 135.44226563 -15.79296875 134.80078125 C-16.52128906 134.20652344 -17.24960937 133.61226562 -18 133 C-18.57363281 132.53980469 -19.14726563 132.07960938 -19.73828125 131.60546875 C-28.51196809 124.46409574 -28.51196809 124.46409574 -30 120 C-30.9590625 119.5359375 -30.9590625 119.5359375 -31.9375 119.0625 C-34.50927065 117.73764845 -34.76349039 116.55030107 -36 114 C-36.639375 113.54625 -37.27875 113.0925 -37.9375 112.625 C-40.6812208 110.46328058 -41.48301422 108.15066277 -43 105 C-43.6526119 103.775999 -44.31038782 102.55474071 -44.97265625 101.3359375 C-53.5895913 85.1789303 -54.75539621 69.75347919 -50 52 C-49.34 52 -48.68 52 -48 52 C-47.896875 51.113125 -47.79375 50.22625 -47.6875 49.3125 C-46.98284093 45.9173245 -46.0445434 43.78057902 -44 41 C-43.34 41 -42.68 41 -42 41 C-41.773125 40.113125 -41.54625 39.22625 -41.3125 38.3125 C-39.07873605 32.67490526 -34.61779599 29.69423679 -30 26 C-27.6098957 23.72371019 -25.40456159 21.57312892 -23.5 18.875 C-21.62500262 16.53125328 -19.58535659 15.52771071 -17 14 C-15.14493193 12.44142229 -13.34153746 10.83896208 -11.55078125 9.20703125 C-10 8 -10 8 -8 8 C-8 7.34 -8 6.68 -8 6 C-6.68 5.67 -5.36 5.34 -4 5 C-4 4.34 -4 3.68 -4 3 C-2 1.375 -2 1.375 0 0 Z " fill="#FEFEFE" transform="translate(557,365)"/>
<path d="M0 0 C2.28125 -0.2734375 2.28125 -0.2734375 5 0 C7.91529895 2.90294599 9.88593071 6.48463248 12 10 C12.47953125 10.77988281 12.9590625 11.55976563 13.453125 12.36328125 C20.08282745 24.2448263 20.7296272 37.72865697 19.6953125 50.99609375 C18.59760682 65.38476057 18.84459116 78.41793893 27 91 C28.57517462 92.82883911 30.21324883 94.37090334 32 96 C32 96.99 32 97.98 32 99 C32.66 99 33.32 99 34 99 C34 99.66 34 100.32 34 101 C18.91006173 101.50769886 6.4321954 97.60778699 -5.70703125 88.296875 C-7 87 -7 87 -7 85 C-7.639375 84.7525 -8.27875 84.505 -8.9375 84.25 C-11 83 -11 83 -11.5625 80.9375 C-11.706875 80.298125 -11.85125 79.65875 -12 79 C-12.99 78.67 -13.98 78.34 -15 78 C-17.12710211 73.9033589 -18.42160623 70.63766855 -18 66 C-18.66 66 -19.32 66 -20 66 C-21.75528238 55.68771599 -21.39855649 45.94392456 -18 36 C-17.7628125 35.16082031 -17.525625 34.32164062 -17.28125 33.45703125 C-15.23010338 26.51389995 -12.26342547 20.2169433 -8.9375 13.8125 C-8.50179687 12.96212158 -8.06609375 12.11174316 -7.6171875 11.2355957 C-7.19566406 10.44241943 -6.77414062 9.64924316 -6.33984375 8.83203125 C-5.96206787 8.11764893 -5.58429199 7.4032666 -5.19506836 6.66723633 C-4 5 -4 5 -1 4 C-0.26676204 1.98491642 -0.26676204 1.98491642 0 0 Z " fill="#FEFEFE" transform="translate(579,424)"/>
<path d="M0 0 C1.93719378 -0.05406122 3.87481921 -0.09282025 5.8125 -0.125 C6.89144531 -0.14820313 7.97039062 -0.17140625 9.08203125 -0.1953125 C12 0 12 0 15 2 C14.67 2.99 14.34 3.98 14 5 C13.34515625 5.07476562 12.6903125 5.14953125 12.015625 5.2265625 C4.12655233 6.36312382 -2.04923632 9.19928524 -9 13 C-9.74894531 13.33515625 -10.49789062 13.6703125 -11.26953125 14.015625 C-13.30030757 14.94686628 -13.30030757 14.94686628 -14.25 17.75 C-15.37037801 22.60497137 -15.71561126 25.62382451 -13.375 30.125 C-12 33 -12 33 -12.6171875 35.04296875 C-15.77162135 39.50729462 -22.51463759 40.69268364 -27.625 41.75 C-28.40875 41.8325 -29.1925 41.915 -30 42 C-30.33 42.99 -30.66 43.98 -31 45 C-32.63671875 45.9921875 -32.63671875 45.9921875 -34.6875 46.875 C-37.60823706 48.22787282 -39.95030454 49.63063656 -42.375 51.75 C-45 54 -45 54 -47 54 C-47.2475 54.61875 -47.495 55.2375 -47.75 55.875 C-49.23740369 58.40358627 -50.43678009 58.71839004 -53 60 C-53.26941406 60.55042969 -53.53882813 61.10085938 -53.81640625 61.66796875 C-55.74821798 65.47421166 -58.59190866 68.66135953 -61.27929688 71.95898438 C-64.31382151 75.7894499 -66.24638357 79.43365227 -68 84 C-68.66 84 -69.32 84 -70 84 C-70.12375 84.721875 -70.2475 85.44375 -70.375 86.1875 C-70.9904931 88.95721894 -71.88444374 91.3970354 -73 94 C-74.65 94 -76.3 94 -78 94 C-83.5172457 74.33030041 -76.59357582 52.41702801 -67.46484375 35.15234375 C-66 33 -66 33 -63 32 C-62.62502015 30.67777498 -62.29562338 29.34219809 -62 28 C-60.17804513 25.83319563 -58.37295114 23.86327583 -56.375 21.875 C-55.86582031 21.33746094 -55.35664062 20.79992187 -54.83203125 20.24609375 C-51.1091783 16.50457988 -48.17331167 15.05551195 -43 14 C-43 13.34 -43 12.68 -43 12 C-39.67537774 10.64418875 -36.34039529 9.31645605 -33 8 C-32.10023438 7.64164062 -31.20046875 7.28328125 -30.2734375 6.9140625 C-20.18553666 3.04751837 -10.78730203 1.62442662 0 2 C0 1.34 0 0.68 0 0 Z " fill="#FEFEFE" transform="translate(572,323)"/>
<path d="M0 0 C3.65581791 1.1959553 7.44794743 1.16104291 11.26953125 1.28125 C14.56249836 1.75362045 16.4643586 2.67663203 19.1015625 4.6875 C19.9140625 7.875 19.9140625 7.875 20.1015625 10.6875 C17.7915625 11.3475 15.4815625 12.0075 13.1015625 12.6875 C13.1015625 13.3475 13.1015625 14.0075 13.1015625 14.6875 C12.31209229 14.67702637 11.52262207 14.66655273 10.70922852 14.65576172 C-16.09315362 13.63921519 -16.09315362 13.63921519 -41.8984375 19.6875 C-42.9090625 20.08324219 -43.9196875 20.47898437 -44.9609375 20.88671875 C-50.78722874 23.11114911 -50.78722874 23.11114911 -56.06640625 26.34375 C-57.8984375 27.6875 -57.8984375 27.6875 -60.8984375 27.6875 C-61.1459375 28.265 -61.3934375 28.8425 -61.6484375 29.4375 C-63.12664223 32.09826851 -64.48157789 33.82306544 -66.8984375 35.6875 C-69.6484375 35.4375 -69.6484375 35.4375 -71.8984375 34.6875 C-71.8984375 34.0275 -71.8984375 33.3675 -71.8984375 32.6875 C-71.2384375 32.6875 -70.5784375 32.6875 -69.8984375 32.6875 C-69.7334375 31.883125 -69.5684375 31.07875 -69.3984375 30.25 C-67.27765216 25.21313483 -63.87330344 21.41393682 -59.8984375 17.6875 C-59.2384375 17.6875 -58.5784375 17.6875 -57.8984375 17.6875 C-57.6715625 17.130625 -57.4446875 16.57375 -57.2109375 16 C-53.0806147 8.7227646 -45.17403182 4.35529078 -37.8984375 0.6875 C-34.7044485 -0.13618989 -32.21929403 -0.3125 -28.8984375 -0.3125 C-28.8984375 -0.9725 -28.8984375 -1.6325 -28.8984375 -2.3125 C-19.12548677 -3.7464544 -9.16324694 -4.05522418 0 0 Z " fill="#FEFEFE" transform="translate(584.8984375,301.3125)"/>
<path d="M0 0 C1.75 1.4375 1.75 1.4375 2.5625 4.5 C2.624375 5.469375 2.68625 6.43875 2.75 7.4375 C1.75 8.4375 1.75 8.4375 -2 8.75 C-5.35334021 8.71984406 -6.25722863 8.43298211 -9.25 6.5625 C-11.25 4.4375 -11.25 4.4375 -11.25 2.4375 C-9.93 2.4375 -8.61 2.4375 -7.25 2.4375 C-7.25 1.7775 -7.25 1.1175 -7.25 0.4375 C-4.56026772 -0.30964785 -2.73221402 -0.6830535 0 0 Z " fill="#C4C9D1" transform="translate(602.25,304.5625)"/>
<path d="M0 0 C6.625 -0.125 6.625 -0.125 10 1 C13.1256626 1.26682486 16.250836 1.44459148 19.3828125 1.62109375 C20.24648438 1.74613281 21.11015625 1.87117188 22 2 C22.33 2.66 22.66 3.32 23 4 C21.35 4 19.7 4 18 4 C18 4.66 18 5.32 18 6 C13.75227794 7.25604684 11.73419482 6.78232288 7.875 4.6875 C7.02679687 4.23761719 6.17859375 3.78773438 5.3046875 3.32421875 C3.49535319 2.28461819 1.73626788 1.15751192 0 0 Z " fill="#F3F5F5" transform="translate(577,301)"/>
<path d="M0 0 C9.13877514 -0.85011862 18.02863765 2.81653314 26 7 C25.67 7.66 25.34 8.32 25 9 C20.59790099 7.5632038 16.23268823 6.10844575 11.9375 4.375 C7.97578833 2.85249109 4.21838961 2.37664193 0 2 C0 1.34 0 0.68 0 0 Z " fill="#EAEBEC" transform="translate(573,291)"/>
<path d="M0 0 C5.02709507 1.57096721 9.02866469 4.61993049 13 8 C13 8.33 13 8.66 13 9 C10.03 9.66 7.06 10.32 4 11 C3.896875 10.21625 3.79375 9.4325 3.6875 8.625 C3.22404978 5.66954819 3.22404978 5.66954819 0 4 C0 2.68 0 1.36 0 0 Z " fill="#E7EAEC" transform="translate(601,300)"/>
<path d="M0 0 C5.8022175 -0.36263859 9.63999211 0.74315457 15 3 C15 3.33 15 3.66 15 4 C8.07 3.505 8.07 3.505 1 3 C0.67 2.01 0.34 1.02 0 0 Z " fill="#DCDEE1" transform="translate(597,313)"/>
<path d="M0 0 C2.31 0 4.62 0 7 0 C7 1.32 7 2.64 7 4 C4.69 4 2.38 4 0 4 C0 2.68 0 1.36 0 0 Z " fill="#727B84" transform="translate(595,308)"/>
<path d="M0 0 C0 0.66 0 1.32 0 2 C-1.59915881 2.69906942 -3.20455045 3.38389468 -4.8125 4.0625 C-5.70582031 4.44535156 -6.59914063 4.82820313 -7.51953125 5.22265625 C-10 6 -10 6 -13 5 C-11.39967863 4.15930585 -9.79458829 3.32768495 -8.1875 2.5 C-6.84751953 1.80390625 -6.84751953 1.80390625 -5.48046875 1.09375 C-3 0 -3 0 0 0 Z " fill="#F0F1F1" transform="translate(578,327)"/>
<path d="M0 0 C2.31 0 4.62 0 7 0 C7.33 0.66 7.66 1.32 8 2 C6.35 2 4.7 2 3 2 C3 2.66 3 3.32 3 4 C1.35 4.33 -0.3 4.66 -2 5 C-2.33 4.34 -2.66 3.68 -3 3 C-2.34 3 -1.68 3 -1 3 C-0.67 2.01 -0.34 1.02 0 0 Z " fill="#DBDFE2" transform="translate(592,303)"/>
<path d="M0 0 C3.91211733 1.15585285 6.8745041 2.35534962 10 5 C7 6 7 6 4.4375 5.3125 C1.70124563 3.83913226 1.05041579 2.86477034 0 0 Z " fill="#F0F2F2" transform="translate(589,294)"/>
<path d="M0 0 C-3.95523655 2.75668002 -7.22423661 3.5317879 -12 4 C-9.27887058 0.4785384 -4.19677615 -2.09838808 0 0 Z " fill="#EBECED" transform="translate(581,359)"/>
<path d="M0 0 C0.99 0 1.98 0 3 0 C2.67 1.65 2.34 3.3 2 5 C-0.64 5 -3.28 5 -6 5 C-6 4.67 -6 4.34 -6 4 C-4.02 4 -2.04 4 0 4 C0 2.68 0 1.36 0 0 Z " fill="#969EA6" transform="translate(602,308)"/>
<path d="M0 0 C3.63 0 7.26 0 11 0 C11 0.33 11 0.66 11 1 C8.69 1 6.38 1 4 1 C3.67 1.99 3.34 2.98 3 4 C2.01 3.34 1.02 2.68 0 2 C0 1.34 0 0.68 0 0 Z " fill="#A2AAB0" transform="translate(591,307)"/>
</svg>
