<?xml version="1.0" encoding="UTF-8"?>
<svg version="1.1" xmlns="http://www.w3.org/2000/svg" width="120" height="116">
<path d="M0 0 C-0.33 0.99 -0.66 1.98 -1 3 C-1.9590625 3.4640625 -1.9590625 3.4640625 -2.9375 3.9375 C-5.1230314 4.79654142 -5.1230314 4.79654142 -5.8125 6.75 C-7.4103179 9.77744443 -9.58952605 11.70082727 -12.0625 14.0625 C-17.50034609 19.37597124 -22.33442129 24.98932035 -27 31 C-27.45487793 31.5784668 -27.90975586 32.15693359 -28.37841797 32.75292969 C-44.11072894 52.82174469 -56.14696238 74.58832628 -64.84472656 98.58007812 C-66.79991723 103.89995862 -66.79991723 103.89995862 -69 105 C-69.30292969 103.91203125 -69.60585937 102.8240625 -69.91796875 101.703125 C-76.42510633 78.70353295 -86.75317235 61.19870014 -102 43 C-101.01 42.505 -101.01 42.505 -100 42 C-86.8392783 47.82108844 -76.09261216 59.47880474 -69.875 72.32421875 C-69.10932084 74.18944859 -69.10932084 74.18944859 -67 75 C-66.75378906 74.17628906 -66.50757813 73.35257812 -66.25390625 72.50390625 C-58.89402607 51.93751209 -44.26852814 34.56700458 -29.578125 18.82421875 C-27.76374702 16.83665014 -26.08870159 14.86960551 -24.421875 12.76953125 C-22.16183178 10.18506247 -21.01038896 9.33926753 -18 8 C-16.39976929 6.64470257 -14.81762135 5.26788648 -13.25 3.875 C-8.53129996 -0.0035754 -5.99871702 -0.88869882 0 0 Z " fill="#1B1B1B" transform="translate(120,0)"/>
<path d="M0 0 C0.66 0 1.32 0 2 0 C2 0.66 2 1.32 2 2 C2.99 2.33 3.98 2.66 5 3 C6.6875 4.4375 6.6875 4.4375 8 6 C8 6.66 8 7.32 8 8 C8.66 8 9.32 8 10 8 C10 8.66 10 9.32 10 10 C10.66 10 11.32 10 12 10 C13.515625 11.50390625 13.515625 11.50390625 15.25 13.5625 C16.17232422 14.64724609 16.17232422 14.64724609 17.11328125 15.75390625 C18.04720703 16.86572266 18.04720703 16.86572266 19 18 C20.14473463 19.33427675 21.29046728 20.66769833 22.4375 22 C23.283125 22.99 24.12875 23.98 25 25 C19.06 25 13.12 25 7 25 C7 37.87 7 50.74 7 64 C-16.1 64 -39.2 64 -63 64 C-63 51.13 -63 38.26 -63 25 C-68.94 25 -74.88 25 -81 25 C-79.15934724 21.31869449 -77.77333892 19.54761191 -74.90234375 16.7421875 C-73.70061523 15.55689453 -73.70061523 15.55689453 -72.47460938 14.34765625 C-71.21874023 13.12369141 -71.21874023 13.12369141 -69.9375 11.875 C-68.27777378 10.24961294 -66.62011253 8.62211373 -64.96484375 6.9921875 C-64.2287085 6.27401855 -63.49257324 5.55584961 -62.73413086 4.81591797 C-60.92976993 3.10478455 -60.92976993 3.10478455 -60 1 C-59.34 1 -58.68 1 -58 1 C-57.34 2.65 -56.68 4.3 -56 6 C-56.99 6.33 -57.98 6.66 -59 7 C-59.68502385 8.32399568 -60.34859211 9.6591458 -61 11 C-63.54613178 13.8017675 -66.27703986 16.36487729 -69 19 C-65.04 19.33 -61.08 19.66 -57 20 C-57 32.54 -57 45.08 -57 58 C-37.86 58 -18.72 58 1 58 C1 45.46 1 32.92 1 20 C4.63 19.67 8.26 19.34 12 19 C10.80375 17.845 9.6075 16.69 8.375 15.5 C4.47442027 11.61330134 1.16012801 7.50078837 -2 3 C-1.34 2.01 -0.68 1.02 0 0 Z " fill="#595959" transform="translate(81,49)"/>
<path d="M0 0 C0.99 0.33 1.98 0.66 3 1 C9.93 1.495 9.93 1.495 17 2 C17 14.54 17 27.08 17 40 C37.46 40 57.92 40 79 40 C78.505 40.99 78.505 40.99 78 42 C78.66 42.33 79.32 42.66 80 43 C80.33 42.01 80.66 41.02 81 40 C81 41.32 81 42.64 81 44 C58.56 44 36.12 44 13 44 C13 31.13 13 18.26 13 5 C7.39 5 1.78 5 -4 5 C-4 4.34 -4 3.68 -4 3 C-2.1875 1.3125 -2.1875 1.3125 0 0 Z " fill="#050505" transform="translate(6,68)"/>
<path d="M0 0 C-0.33 0.99 -0.66 1.98 -1 3 C-1.9590625 3.4640625 -1.9590625 3.4640625 -2.9375 3.9375 C-5.1230314 4.79654142 -5.1230314 4.79654142 -5.8125 6.75 C-7.4103179 9.77744443 -9.58952605 11.70082727 -12.0625 14.0625 C-21.40137192 23.17337063 -29.11243134 33.64242027 -37 44 C-37.99 43.01 -38.98 42.02 -40 41 C-37.525 38.525 -37.525 38.525 -35 36 C-35.33 35.34 -35.66 34.68 -36 34 C-35.34 33.34 -34.68 32.68 -34 32 C-36.49064888 31.31292445 -38.37886292 31 -41 31 C-38.60557261 28.4361832 -36.20920507 25.87418756 -33.8125 23.3125 C-33.13896484 22.59126953 -32.46542969 21.87003906 -31.77148438 21.12695312 C-26.4335383 15.4244644 -21.25327458 10.00842773 -14.90625 5.42578125 C-12.82741724 3.92903401 -12.82741724 3.92903401 -10.5 1.625 C-6.87676788 -0.73010088 -4.26453457 -0.28912099 0 0 Z " fill="#101010" transform="translate(120,0)"/>
<path d="M0 0 C3.50716278 1.75358139 5.16715097 2.9281899 7.8203125 5.625 C8.52027344 6.33140625 9.22023437 7.0378125 9.94140625 7.765625 C10.66199219 8.50296875 11.38257813 9.2403125 12.125 10 C12.85332031 10.73734375 13.58164063 11.4746875 14.33203125 12.234375 C15.67953125 13.5993103 17.02496843 14.96628733 18.36767578 16.3359375 C19.57198729 17.56366518 20.78392404 18.78392404 22 20 C21.01 20.99 20.02 21.98 19 23 C16.07299167 21.69113024 14.12815685 20.33773912 11.984375 17.9609375 C11.45585938 17.38085938 10.92734375 16.80078125 10.3828125 16.203125 C9.84398437 15.59984375 9.30515625 14.9965625 8.75 14.375 C7.91855469 13.45847656 7.91855469 13.45847656 7.0703125 12.5234375 C5.7082159 11.02043435 4.35338399 9.5108532 3 8 C0.06858448 9.31919662 -1.96682725 10.73400789 -4.19921875 13.0390625 C-4.76833984 13.61914062 -5.33746094 14.19921875 -5.92382812 14.796875 C-6.50583984 15.40015625 -7.08785156 16.0034375 -7.6875 16.625 C-9.77291061 18.77154642 -11.87312731 20.89389176 -14 23 C-14.33 23 -14.66 23 -15 23 C-15 19.37 -15 15.74 -15 12 C-17.31 12 -19.62 12 -22 12 C-22 16.62 -22 21.24 -22 26 C-24.475 25.01 -24.475 25.01 -27 24 C-27 18.39 -27 12.78 -27 7 C-24.40125 6.95875 -21.8025 6.9175 -19.125 6.875 C-18.30789551 6.85679199 -17.49079102 6.83858398 -16.64892578 6.81982422 C-14.76504951 6.80522783 -12.88130688 6.90056518 -11 7 C-10.34 7.66 -9.68 8.32 -9 9 C-6.03 6.03 -3.06 3.06 0 0 Z " fill="#2F2F2F" transform="translate(51,19)"/>
<path d="M0 0 C2.6875 0.875 2.6875 0.875 5 2 C4.01 3.485 4.01 3.485 3 5 C3 5.99 3 6.98 3 8 C1.9790625 8.9590625 1.9790625 8.9590625 0.9375 9.9375 C0.298125 10.618125 -0.34125 11.29875 -1 12 C-0.7532251 12.94129761 -0.7532251 12.94129761 -0.50146484 13.90161133 C0 16 0 16 -0.72509766 17.81518555 C-2.01015842 19.78394086 -3.29874188 21.74613888 -4.625 23.6875 C-5.28435547 24.72100586 -5.28435547 24.72100586 -5.95703125 25.77539062 C-9.30450129 30.76714581 -9.30450129 30.76714581 -12.66015625 31.890625 C-13.43230469 31.92671875 -14.20445313 31.9628125 -15 32 C-16.6792238 32.63437344 -18.35008418 33.29289322 -20 34 C-21.50718399 29.47844804 -19.93752867 26.1476149 -18 22 C-7.51436389 5.00957592 -7.51436389 5.00957592 0 0 Z " fill="#171717" transform="translate(82,30)"/>
<path d="M0 0 C0.66 0 1.32 0 2 0 C2 0.66 2 1.32 2 2 C2.99 2.33 3.98 2.66 5 3 C6.6875 4.4375 6.6875 4.4375 8 6 C8 6.66 8 7.32 8 8 C8.66 8 9.32 8 10 8 C10 8.66 10 9.32 10 10 C10.66 10 11.32 10 12 10 C13.515625 11.50390625 13.515625 11.50390625 15.25 13.5625 C15.81203125 14.22378906 16.3740625 14.88507812 16.953125 15.56640625 C17.96632813 16.77103516 17.96632813 16.77103516 19 18 C20.98 20.31 22.96 22.62 25 25 C18.73 25 12.46 25 6 25 C6 35.56 6 46.12 6 57 C5.67 57 5.34 57 5 57 C4.67 48.42 4.34 39.84 4 31 C3.67 38.26 3.34 45.52 3 53 C2.67 53 2.34 53 2 53 C2 42.44 2 31.88 2 21 C5.96 21 9.92 21 14 21 C14 20.34 14 19.68 14 19 C13.1032959 18.599021 13.1032959 18.599021 12.18847656 18.18994141 C9.96524545 16.98110289 8.66864604 15.82828148 6.984375 13.9609375 C6.45585938 13.38085938 5.92734375 12.80078125 5.3828125 12.203125 C4.84398438 11.59984375 4.30515625 10.9965625 3.75 10.375 C3.19570312 9.76398437 2.64140625 9.15296875 2.0703125 8.5234375 C0.7082159 7.02043435 -0.64661601 5.5108532 -2 4 C-1.34 2.68 -0.68 1.36 0 0 Z " fill="#030303" transform="translate(81,49)"/>
<path d="M0 0 C1.56436172 -0.00067765 3.12872334 -0.00165145 4.69308472 -0.00289917 C7.9553936 -0.00436062 11.21767484 -0.00227633 14.47998047 0.00244141 C18.56254958 0.00807198 22.64505247 0.00480496 26.72761917 -0.00101089 C46.9417178 -0.0252265 67.10683778 0.29019755 87.3046875 1.1328125 C87.3046875 1.7928125 87.3046875 2.4528125 87.3046875 3.1328125 C47.7046875 3.1328125 8.1046875 3.1328125 -32.6953125 3.1328125 C-32.6953125 2.4728125 -32.6953125 1.8128125 -32.6953125 1.1328125 C-21.78174024 0.3307727 -10.9411879 -0.01719522 0 0 Z " fill="#030303" transform="translate(32.6953125,112.8671875)"/>
<path d="M0 0 C0.66 0 1.32 0 2 0 C2.66 1.65 3.32 3.3 4 5 C3.01 5.33 2.02 5.66 1 6 C0.31497615 7.32399568 -0.34859211 8.6591458 -1 10 C-3.54613178 12.8017675 -6.27703986 15.36487729 -9 18 C-5.04 18.33 -1.08 18.66 3 19 C3 31.54 3 44.08 3 57 C22.14 57 41.28 57 61 57 C61 57.33 61 57.66 61 58 C41.53 58 22.06 58 2 58 C2 45.46 2 32.92 2 20 C-2.62 20 -7.24 20 -12 20 C-14.33333333 20 -16.66666667 20 -19 20 C-18.45996338 19.4652002 -17.91992676 18.93040039 -17.36352539 18.37939453 C-14.92725624 15.96386294 -12.49483893 13.54448883 -10.0625 11.125 C-9.21236328 10.28324219 -8.36222656 9.44148438 -7.48632812 8.57421875 C-6.67744141 7.76855469 -5.86855469 6.96289062 -5.03515625 6.1328125 C-4.2862915 5.38918457 -3.53742676 4.64555664 -2.76586914 3.87939453 C-0.93702297 2.1128324 -0.93702297 2.1128324 0 0 Z " fill="#A0A0A0" transform="translate(21,50)"/>
<path d="M0 0 C11.60215267 3.2754963 21.45972837 12.69920321 27.4375 23 C27.953125 23.99 28.46875 24.98 29 26 C26.03 26.66 23.06 27.32 20 28 C19.59910156 27.33355469 19.19820312 26.66710937 18.78515625 25.98046875 C14.37286017 18.82674608 9.40956392 12.4194825 4 6 C0 1.1394148 0 1.1394148 0 0 Z " fill="#242424" transform="translate(18,42)"/>
<path d="M0 0 C0.66 0.33 1.32 0.66 2 1 C0.04761147 3.00612399 -1.91137822 5.00492433 -3.875 7 C-4.43058594 7.57234375 -4.98617187 8.1446875 -5.55859375 8.734375 C-7.00134404 10.19450782 -8.4974374 11.60149298 -10 13 C-10.66 13 -11.32 13 -12 13 C-12 11.35 -12 9.7 -12 8 C-13.65 8.33 -15.3 8.66 -17 9 C-16.01 10.485 -16.01 10.485 -15 12 C-17.31 12 -19.62 12 -22 12 C-22 16.62 -22 21.24 -22 26 C-24.475 25.01 -24.475 25.01 -27 24 C-27 18.39 -27 12.78 -27 7 C-24.40125 6.95875 -21.8025 6.9175 -19.125 6.875 C-18.30789551 6.85679199 -17.49079102 6.83858398 -16.64892578 6.81982422 C-14.76504951 6.80522783 -12.88130688 6.90056518 -11 7 C-10.34 7.66 -9.68 8.32 -9 9 C-6.03 6.03 -3.06 3.06 0 0 Z " fill="#4E4E4E" transform="translate(51,19)"/>
<path d="M0 0 C0.33 0.99 0.66 1.98 1 3 C-2.63 6.63 -6.26 10.26 -10 14 C-7.8614515 16.1385485 -6.86724686 16.42655063 -4 17 C-4.87570555 21.40785758 -7.31196487 24.30710183 -10.0625 27.75 C-10.53494141 28.35199219 -11.00738281 28.95398438 -11.49414062 29.57421875 C-12.65690401 31.05409943 -13.8276766 32.52768096 -15 34 C-15.99 33.01 -16.98 32.02 -18 31 C-16.35 29.35 -14.7 27.7 -13 26 C-13.33 25.34 -13.66 24.68 -14 24 C-13.34 23.34 -12.68 22.68 -12 22 C-14.49064888 21.31292445 -16.37886292 21 -19 21 C-18.56655273 20.54149658 -18.13310547 20.08299316 -17.68652344 19.6105957 C-15.70572083 17.5130729 -13.72784195 15.41281461 -11.75 13.3125 C-11.06808594 12.59126953 -10.38617188 11.87003906 -9.68359375 11.12695312 C-6.29689105 7.52652647 -3.0078576 3.93037062 0 0 Z " fill="#1E1E1E" transform="translate(98,10)"/>
<path d="M0 0 C2.6875 0.875 2.6875 0.875 5 2 C4.01 3.485 4.01 3.485 3 5 C3 5.99 3 6.98 3 8 C2.319375 8.639375 1.63875 9.27875 0.9375 9.9375 C-0.0215625 10.9584375 -0.0215625 10.9584375 -1 12 C-0.86358623 14.21858253 -0.86358623 14.21858253 0 16 C-0.66 15.67 -1.32 15.34 -2 15 C-2.33 15.66 -2.66 16.32 -3 17 C-5.35964273 16.59316505 -6.85934088 16.10185661 -8.8125 14.6875 C-10 13 -10 13 -9.75390625 11.12109375 C-8.89628617 8.70820408 -7.81809438 7.28710162 -6.125 5.375 C-5.61195312 4.78460938 -5.09890625 4.19421875 -4.5703125 3.5859375 C-3 2 -3 2 0 0 Z " fill="#131313" transform="translate(82,30)"/>
<path d="M0 0 C0.66 0 1.32 0 2 0 C2 0.66 2 1.32 2 2 C2.99 2.33 3.98 2.66 5 3 C6.6875 4.4375 6.6875 4.4375 8 6 C8 6.66 8 7.32 8 8 C8.66 8 9.32 8 10 8 C10 8.66 10 9.32 10 10 C10.66 10 11.32 10 12 10 C13.625 12.5 13.625 12.5 15 15 C14.01 15 13.02 15 12 15 C11.67 15.99 11.34 16.98 11 18 C6.09717644 13.35827355 1.90510489 8.50719921 -2 3 C-1.34 2.01 -0.68 1.02 0 0 Z " fill="#3B3B3B" transform="translate(81,49)"/>
<path d="M0 0 C-0.33 0.99 -0.66 1.98 -1 3 C-1.639375 3.309375 -2.27875 3.61875 -2.9375 3.9375 C-5.50927065 5.26235155 -5.76349039 6.44969893 -7 9 C-9.125 10.75 -9.125 10.75 -11 12 C-11.66 10.35 -12.32 8.7 -13 7 C-14.32 7.99 -15.64 8.98 -17 10 C-17.66 9.67 -18.32 9.34 -19 9 C-7.84738041 -1.33257403 -7.84738041 -1.33257403 0 0 Z " fill="#353535" transform="translate(120,0)"/>
<path d="M0 0 C3.875 1.75 3.875 1.75 5 4 C5.99 4.33 6.98 4.66 8 5 C8.33 4.01 8.66 3.02 9 2 C9.33 2.99 9.66 3.98 10 5 C8.5625 7.6875 8.5625 7.6875 7 10 C6.38125 9.814375 5.7625 9.62875 5.125 9.4375 C2.95839822 8.76313824 2.95839822 8.76313824 1 10 C0.38125 9.814375 -0.2375 9.62875 -0.875 9.4375 C-3.59731325 8.87702374 -4.62361948 9.69249356 -7 11 C-6.02262231 9.35310365 -5.0430468 7.70751146 -4.0625 6.0625 C-3.51722656 5.14597656 -2.97195312 4.22945312 -2.41015625 3.28515625 C-1 1 -1 1 0 0 Z " fill="#1D1D1D" transform="translate(71,42)"/>
<path d="M0 0 C0.66 0 1.32 0 2 0 C4 3 4 3 3.84765625 4.921875 C2.78664015 7.52307576 1.33252687 9.18269796 -0.5625 11.25 C-1.20316406 11.95640625 -1.84382813 12.6628125 -2.50390625 13.390625 C-3.24447266 14.18726563 -3.24447266 14.18726563 -4 15 C-4.66 14.01 -5.32 13.02 -6 12 C-5.67 11.34 -5.34 10.68 -5 10 C-5.66 9.67 -6.32 9.34 -7 9 C-6.566875 8.608125 -6.13375 8.21625 -5.6875 7.8125 C-3.73625325 5.71671645 -2.43131962 3.47227935 -1 1 C-0.67 0.67 -0.34 0.34 0 0 Z " fill="#171717" transform="translate(105,7)"/>
<path d="M0 0 C6.26418531 1.48362284 10.91513505 5.24162156 16 9 C15.01 9.66 14.02 10.32 13 11 C12.34 10.67 11.68 10.34 11 10 C10.67 10.99 10.34 11.98 10 13 C8.51511559 11.40112446 7.03726855 9.79571095 5.5625 8.1875 C4.32693359 6.84751953 4.32693359 6.84751953 3.06640625 5.48046875 C1 3 1 3 0 0 Z " fill="#2F2F2F" transform="translate(18,42)"/>
<path d="M0 0 C1.32 1.32 2.64 2.64 4 4 C2.68 4.99 1.36 5.98 0 7 C0.33 7.66 0.66 8.32 1 9 C0.67 9.99 0.34 10.98 0 12 C-2.5625 13.1875 -2.5625 13.1875 -5 14 C-6.34374179 9.96877462 -5.4530301 7.94393885 -4 4 C-1.875 1.5625 -1.875 1.5625 0 0 Z " fill="#0D0D0D" transform="translate(67,50)"/>
<path d="M0 0 C3.39192363 0.59283621 5.2107757 1.76743189 7.75 4.0625 C8.67039062 4.88427734 8.67039062 4.88427734 9.609375 5.72265625 C10.29773438 6.35494141 10.29773438 6.35494141 11 7 C10.01 8.32 9.02 9.64 8 11 C3.70048197 9.40758592 1.60328053 6.64459275 -1 3 C-0.67 2.01 -0.34 1.02 0 0 Z " fill="#424242" transform="translate(62,31)"/>
<path d="M0 0 C3.63 0 7.26 0 11 0 C11 1.65 11 3.3 11 5 C12.65 4.01 14.3 3.02 16 2 C15.82374165 4.37948772 15.30280227 5.70225849 13.59765625 7.37890625 C12.09350908 8.62115486 10.54870149 9.81376056 9 11 C8.67 8.69 8.34 6.38 8 4 C7.236875 3.896875 6.47375 3.79375 5.6875 3.6875 C3 3 3 3 0 0 Z " fill="#050505" transform="translate(28,27)"/>
<path d="M0 0 C0.33 0.99 0.66 1.98 1 3 C0.21753906 3.70125 -0.56492187 4.4025 -1.37109375 5.125 C-8.05748743 10.83835357 -8.05748743 10.83835357 -11.1875 18.6875 C-11.125625 19.780625 -11.06375 20.87375 -11 22 C-11.763125 21.835 -12.52625 21.67 -13.3125 21.5 C-16.03596236 20.90854604 -16.03596236 20.90854604 -19 21 C-18.56655273 20.54149658 -18.13310547 20.08299316 -17.68652344 19.6105957 C-15.70572083 17.5130729 -13.72784195 15.41281461 -11.75 13.3125 C-11.06808594 12.59126953 -10.38617188 11.87003906 -9.68359375 11.12695312 C-6.29689105 7.52652647 -3.0078576 3.93037062 0 0 Z " fill="#474747" transform="translate(98,10)"/>
<path d="M0 0 C1.10865985 0.91122727 2.21172219 1.82926659 3.3125 2.75 C3.92738281 3.26046875 4.54226562 3.7709375 5.17578125 4.296875 C7 6 7 6 10 10 C4.06 10 -1.88 10 -8 10 C-8 9.67 -8 9.34 -8 9 C-4.7 8.67 -1.4 8.34 2 8 C2 7.01 2 6.02 2 5 C1.34 4.67 0.68 4.34 0 4 C0 2.68 0 1.36 0 0 Z " fill="#414141" transform="translate(96,64)"/>
<path d="M0 0 C0.66 0 1.32 0 2 0 C2.66 1.65 3.32 3.3 4 5 C3.01 5.33 2.02 5.66 1 6 C-0.20882096 8.00016466 -0.20882096 8.00016466 -1 10 C-3.475 9.01 -3.475 9.01 -6 8 C-5.04956626 6.66102417 -4.08940853 5.32894573 -3.125 4 C-2.59132813 3.2575 -2.05765625 2.515 -1.5078125 1.75 C-1.01023437 1.1725 -0.51265625 0.595 0 0 Z " fill="#333333" transform="translate(21,50)"/>
<path d="M0 0 C0 0.66 0 1.32 0 2 C0.66 2 1.32 2 2 2 C3.625 4.5 3.625 4.5 5 7 C4.01 7 3.02 7 2 7 C1.67 7.99 1.34 8.98 1 10 C-1.31 7.69 -3.62 5.38 -6 3 C-2.25 0 -2.25 0 0 0 Z " fill="#515151" transform="translate(91,57)"/>
<path d="M0 0 C1.26328125 0.30550781 2.5265625 0.61101562 3.828125 0.92578125 C4.79234375 1.17714844 5.7565625 1.42851563 6.75 1.6875 C6.75 2.0175 6.75 2.3475 6.75 2.6875 C0.81 3.0175 -5.13 3.3475 -11.25 3.6875 C-11.25 1.6875 -11.25 1.6875 -9.703125 -0.01953125 C-6.11196261 -1.91232544 -3.87154581 -0.96788645 0 0 Z " fill="#070707" transform="translate(13.25,69.3125)"/>
<path d="M0 0 C1.04220703 0.43119141 1.04220703 0.43119141 2.10546875 0.87109375 C0.35546875 4.74609375 0.35546875 4.74609375 -1.89453125 5.87109375 C-1.89453125 5.21109375 -1.89453125 4.55109375 -1.89453125 3.87109375 C-6.38545502 6.24864163 -9.41688838 9.23170005 -12.89453125 12.87109375 C-13.55453125 12.54109375 -14.21453125 12.21109375 -14.89453125 11.87109375 C-13.01625718 9.83105445 -11.11994763 7.81569828 -9.20703125 5.80859375 C-8.67658203 5.22787109 -8.14613281 4.64714844 -7.59960938 4.04882812 C-3.54237011 -0.15775737 -3.54237011 -0.15775737 0 0 Z " fill="#454545" transform="translate(16.89453125,58.12890625)"/>
<path d="M0 0 C4.95696581 1.23924145 7.11658466 2.78577758 10 7 C9.67 7.66 9.34 8.32 9 9 C4.74822077 8.52758009 2.70030797 6.15035929 0 3 C0 2.01 0 1.02 0 0 Z " fill="#202020" transform="translate(54,24)"/>
<path d="M0 0 C2.75 0.8125 2.75 0.8125 5 2 C4.01 3.485 4.01 3.485 3 5 C3 5.99 3 6.98 3 8 C2.01 8.33 1.02 8.66 0 9 C-0.103125 8.38125 -0.20625 7.7625 -0.3125 7.125 C-0.87525373 4.63473516 -0.87525373 4.63473516 -4 3 C-2.3125 1.375 -2.3125 1.375 0 0 Z M-2 9 C-1.34 9.33 -0.68 9.66 0 10 C-0.99 10 -1.98 10 -3 10 C-2.67 9.67 -2.34 9.34 -2 9 Z " fill="#050505" transform="translate(82,30)"/>
<path d="M0 0 C1.4540625 0.0309375 1.4540625 0.0309375 2.9375 0.0625 C1.9375 3.0625 1.9375 3.0625 -0.0625 4.125 C-0.7225 4.434375 -1.3825 4.74375 -2.0625 5.0625 C-2.3925 5.7225 -2.7225 6.3825 -3.0625 7.0625 C-3.7225 6.7325 -4.3825 6.4025 -5.0625 6.0625 C-3.98897059 0.08140756 -3.98897059 0.08140756 0 0 Z " fill="#2E2E2E" transform="translate(117.0625,-0.0625)"/>
<path d="M0 0 C0.99 0 1.98 0 3 0 C3 1.32 3 2.64 3 4 C3.99 4.33 4.98 4.66 6 5 C5.67 5.99 5.34 6.98 5 8 C2.03 8 -0.94 8 -4 8 C0 6 0 6 2 6 C2 5.34 2 4.68 2 4 C1.34 4 0.68 4 0 4 C0 2.68 0 1.36 0 0 Z " fill="#0D0D0D" transform="translate(93,64)"/>
<path d="M0 0 C3.77545388 1.09068668 6.47043472 1.9083091 9 5 C8.01 5.99 7.02 6.98 6 8 C4.9970458 6.85675161 3.99770973 5.71032809 3 4.5625 C2.443125 3.92441406 1.88625 3.28632812 1.3125 2.62890625 C0 1 0 1 0 0 Z " fill="#575757" transform="translate(18,42)"/>
<path d="M0 0 C0.33 0.66 0.66 1.32 1 2 C1.66 2.33 2.32 2.66 3 3 C2.01 4.98 1.02 6.96 0 9 C-1.32 7.35 -2.64 5.7 -4 4 C-2.68 2.68 -1.36 1.36 0 0 Z " fill="#212121" transform="translate(68,60)"/>
<path d="M0 0 C0.8125 1.6875 0.8125 1.6875 1 4 C-1.4375 6.75 -1.4375 6.75 -4 9 C-4.66 8.01 -5.32 7.02 -6 6 C-4.71034824 4.62437146 -3.37310707 3.29233607 -2 2 C-1.34 2 -0.68 2 0 2 C0 1.34 0 0.68 0 0 Z " fill="#262626" transform="translate(86,35)"/>
<path d="M0 0 C2.4375 0.375 2.4375 0.375 5 1 C5.33 1.66 5.66 2.32 6 3 C5.01 3 4.02 3 3 3 C2.67 3.99 2.34 4.98 2 6 C1.01 5.01 0.02 4.02 -1 3 C-0.67 2.01 -0.34 1.02 0 0 Z " fill="#343434" transform="translate(90,61)"/>
<path d="M0 0 C1.65 0 3.3 0 5 0 C4.67 1.65 4.34 3.3 4 5 C2.68 4.67 1.36 4.34 0 4 C0 2.68 0 1.36 0 0 Z " fill="#0A0A0A" transform="translate(29,52)"/>
<path d="M0 0 C1.32 1.32 2.64 2.64 4 4 C2.35 4.66 0.7 5.32 -1 6 C-1.66 5.01 -2.32 4.02 -3 3 C-2.01 2.01 -1.02 1.02 0 0 Z " fill="#070707" transform="translate(67,50)"/>
<path d="M0 0 C-0.33 1.32 -0.66 2.64 -1 4 C-2.9375 3.625 -2.9375 3.625 -5 3 C-5.33 2.34 -5.66 1.68 -6 1 C-4 0 -4 0 0 0 Z " fill="#1F1F1F" transform="translate(89,55)"/>
<path d="M0 0 C0.33 0 0.66 0 1 0 C1 1.98 1 3.96 1 6 C0.67 6 0.34 6 0 6 C0 4.02 0 2.04 0 0 Z " fill="#FFFFFF" transform="translate(16,106)"/>
<path d="" fill="#FFFFFF" transform="translate(0,0)"/>
<path d="M0 0 C2 1 2 1 2 1 Z " fill="#FFFFFF" transform="translate(52,27)"/>
<path d="" fill="#FFFFFF" transform="translate(0,0)"/>
<path d="" fill="#FFFFFF" transform="translate(0,0)"/>
<path d="" fill="#FFFFFF" transform="translate(0,0)"/>
<path d="" fill="#FFFFFF" transform="translate(0,0)"/>
<path d="" fill="#FFFFFF" transform="translate(0,0)"/>
<path d="" fill="#FFFFFF" transform="translate(0,0)"/>
<path d="" fill="#FFFFFF" transform="translate(0,0)"/>
<path d="" fill="#DFDFDF" transform="translate(0,0)"/>
<path d="" fill="#FFFFFF" transform="translate(0,0)"/>
<path d="" fill="#D5D5D5" transform="translate(0,0)"/>
<path d="" fill="#FFFFFF" transform="translate(0,0)"/>
<path d="" fill="#FFFFFF" transform="translate(0,0)"/>
<path d="" fill="#FFFFFF" transform="translate(0,0)"/>
<path d="" fill="#FFFFFF" transform="translate(0,0)"/>
<path d="" fill="#FFFFFF" transform="translate(0,0)"/>
<path d="" fill="#D8D8D8" transform="translate(0,0)"/>
<path d="" fill="#FFFFFF" transform="translate(0,0)"/>
<path d="" fill="#FFFFFF" transform="translate(0,0)"/>
<path d="" fill="#FFFFFF" transform="translate(0,0)"/>
<path d="" fill="#E8E8E8" transform="translate(0,0)"/>
<path d="" fill="#D5D5D5" transform="translate(0,0)"/>
<path d="" fill="#FFFFFF" transform="translate(0,0)"/>
<path d="" fill="#FFFFFF" transform="translate(0,0)"/>
<path d="" fill="#FFFFFF" transform="translate(0,0)"/>
<path d="" fill="#FFFFFF" transform="translate(0,0)"/>
<path d="" fill="#FFFFFF" transform="translate(0,0)"/>
<path d="" fill="#FFFFFF" transform="translate(0,0)"/>
<path d="" fill="#FFFFFF" transform="translate(0,0)"/>
<path d="" fill="#FFFFFF" transform="translate(0,0)"/>
<path d="" fill="#FFFFFF" transform="translate(0,0)"/>
<path d="" fill="#FFFFFF" transform="translate(0,0)"/>
<path d="" fill="#FFFFFF" transform="translate(0,0)"/>
<path d="" fill="#D5D5D5" transform="translate(0,0)"/>
<path d="" fill="#FFFFFF" transform="translate(0,0)"/>
<path d="" fill="#FFFFFF" transform="translate(0,0)"/>
<path d="" fill="#FFFFFF" transform="translate(0,0)"/>
<path d="" fill="#DBDBDB" transform="translate(0,0)"/>
<path d="" fill="#DBDBDB" transform="translate(0,0)"/>
<path d="" fill="#FFFFFF" transform="translate(0,0)"/>
<path d="" fill="#FFFFFF" transform="translate(0,0)"/>
<path d="" fill="#FFFFFF" transform="translate(0,0)"/>
<path d="" fill="#DFDFDF" transform="translate(0,0)"/>
<path d="" fill="#FFFFFF" transform="translate(0,0)"/>
<path d="" fill="#FFFFFF" transform="translate(0,0)"/>
<path d="" fill="#E3E3E3" transform="translate(0,0)"/>
<path d="" fill="#FFFFFF" transform="translate(0,0)"/>
<path d="" fill="#FFFFFF" transform="translate(0,0)"/>
<path d="" fill="#FFFFFF" transform="translate(0,0)"/>
<path d="" fill="#FFFFFF" transform="translate(0,0)"/>
<path d="" fill="#FFFFFF" transform="translate(0,0)"/>
<path d="" fill="#FFFFFF" transform="translate(0,0)"/>
<path d="" fill="#FFFFFF" transform="translate(0,0)"/>
<path d="" fill="#FFFFFF" transform="translate(0,0)"/>
<path d="" fill="#FFFFFF" transform="translate(0,0)"/>
<path d="" fill="#E3E3E3" transform="translate(0,0)"/>
<path d="" fill="#FFFFFF" transform="translate(0,0)"/>
<path d="" fill="#E3E3E3" transform="translate(0,0)"/>
</svg>
